<?xml version="1.0" encoding="UTF-8"?>
<svg id="Layer_1" data-name="Layer 1" xmlns="http://www.w3.org/2000/svg" viewBox="0 0 102.48 45.28">
  <defs>
    <style>
      .cls-1 {
        fill: none;
        stroke: #212529;
        stroke-miterlimit: 10;
        stroke-width: 1.8px;
      }

      .cls-2 {
        fill: #212529;
      }

      .cls-2, .cls-3, .cls-4 {
        stroke-width: 0px;
      }

      .cls-3 {
        fill: #fff;
      }

      .cls-4 {
        fill: #9ade7b;
      }
    </style>
  </defs>
  <g>
    <rect class="cls-1" x="5.59" y=".9" width="16.77" height="8.77"/>
    <rect class="cls-1" x="5.96" y="35.6" width="16.77" height="8.77"/>
    <rect class="cls-4" y="8.67" width="27.95" height="27.95" rx="3.47" ry="3.47"/>
    <path class="cls-3" d="M7.61,30.15c-.11,0-.21-.05-.3-.15-.09-.1-.13-.21-.13-.32,0-.07,0-.14.02-.2l4.83-14.36c.04-.16.13-.31.26-.44.13-.13.31-.19.54-.19h3.04c.23,0,.41.06.54.19.13.13.22.27.26.44l4.81,14.36c.03.06.04.13.04.2,0,.12-.04.23-.13.32-.09.1-.2.15-.32.15h-2.53c-.21,0-.36-.06-.46-.17-.1-.11-.17-.21-.2-.3l-.8-2.28h-5.49l-.78,2.28c-.03.09-.09.19-.19.3-.1.11-.26.17-.49.17h-2.53ZM12.44,24.17h3.82l-1.93-5.9-1.89,5.9Z"/>
    <g>
      <path class="cls-2" d="M35.04,29.45c-1.14,0-2.12-.25-2.94-.76s-1.46-1.21-1.91-2.11c-.44-.9-.67-1.93-.67-3.08v-.33c0-1.16.23-2.19.68-3.09.45-.9,1.09-1.6,1.91-2.11.82-.51,1.79-.77,2.9-.77s1.98.17,2.75.5,1.39.72,1.87,1.15l-.02,3.39h-2.4l-.43-2.11c-.17-.17-.4-.32-.67-.43-.27-.11-.54-.16-.82-.16-.58,0-1.06.15-1.45.44-.38.29-.67.71-.86,1.24-.19.54-.28,1.19-.28,1.95v.33c0,.81.1,1.47.32,1.99.21.52.49.9.85,1.15.35.25.75.37,1.19.37.56,0,1.01-.15,1.35-.44.34-.29.57-.71.69-1.25h2.73l.03.07c-.12.84-.37,1.56-.74,2.17s-.88,1.08-1.55,1.41c-.67.33-1.51.49-2.54.49Z"/>
      <path class="cls-2" d="M41.54,29.22v-1.91l1.53-.33v-7.33l-1.69-.33v-1.92h4.66l.12,1.46.02.26c.29-.64.65-1.12,1.08-1.45.43-.33.94-.49,1.54-.49.19,0,.4.02.62.05s.43.07.6.13l-.34,2.94-1.58-.09c-.45-.02-.82.05-1.1.23-.28.17-.53.43-.75.75v5.79l1.53.33v1.91h-6.25Z"/>
      <path class="cls-2" d="M56.61,29.45c-1.17,0-2.17-.25-3-.76-.84-.51-1.48-1.22-1.92-2.12-.44-.91-.67-1.95-.67-3.13v-.23c0-1.17.22-2.21.67-3.12.44-.91,1.08-1.62,1.92-2.13s1.83-.77,2.99-.77,2.17.26,3,.77,1.47,1.22,1.91,2.12c.44.9.67,1.94.67,3.12v.23c0,1.18-.22,2.22-.67,3.13s-1.08,1.61-1.91,2.12-1.82.76-2.98.76ZM56.61,27.01c.55,0,1-.15,1.35-.45.35-.3.61-.71.78-1.25.17-.54.25-1.16.25-1.87v-.23c0-.7-.08-1.32-.25-1.85-.17-.54-.43-.95-.78-1.26-.35-.3-.81-.45-1.37-.45s-1,.15-1.35.45c-.36.3-.62.72-.78,1.26-.16.54-.25,1.15-.25,1.85v.23c0,.71.08,1.34.25,1.88.16.54.42.96.78,1.25.36.29.81.44,1.38.44Z"/>
      <path class="cls-2" d="M68.65,29.45c-.88,0-1.7-.08-2.46-.25-.76-.17-1.49-.41-2.19-.72l-.03-3.34h2.22l.43,1.7c.25.12.52.22.81.29.29.07.63.11,1.01.11.71,0,1.22-.12,1.51-.35.29-.23.44-.52.44-.87,0-.33-.16-.62-.46-.87-.31-.25-.93-.47-1.85-.66-1.4-.29-2.43-.74-3.09-1.35-.66-.61-.99-1.39-.99-2.35,0-.66.17-1.25.5-1.79.33-.54.84-.97,1.52-1.3s1.55-.49,2.62-.49c.89,0,1.7.09,2.44.26.74.17,1.36.39,1.86.67l.03,3.23h-2.21l-.34-1.55c-.2-.15-.43-.25-.69-.33s-.57-.11-.9-.11c-.56,0-.99.11-1.29.34s-.45.52-.45.87c0,.2.05.39.16.57.11.17.31.34.63.49.31.15.77.3,1.37.44,1.46.33,2.53.78,3.2,1.34.67.56,1,1.34,1,2.34,0,1.1-.4,1.99-1.2,2.67-.8.68-1.99,1.02-3.58,1.02Z"/>
      <path class="cls-2" d="M79.52,29.45c-1.1,0-1.95-.3-2.54-.91-.59-.6-.89-1.56-.89-2.87v-6.03h-1.63v-2.24h1.63v-2.89h3.18v2.89h2.17v2.24h-2.17v6.02c0,.46.1.79.29.98.19.2.46.29.79.29.18,0,.37-.01.57-.04s.37-.05.52-.08l.27,2.3c-.33.09-.68.17-1.07.24-.38.06-.76.09-1.13.09Z"/>
      <path class="cls-2" d="M83.08,29.22v-1.91l1.54-.33v-7.33l-1.7-.33v-1.92h4.89v9.58l1.53.33v1.91h-6.26ZM84.51,14.91v-2.72h3.3v2.72h-3.3Z"/>
      <path class="cls-2" d="M95.99,33.77v-1.88l1.87-.37v-3.38c-.36.44-.77.77-1.24.99-.47.22-1.02.33-1.64.33-.95,0-1.77-.24-2.45-.73-.68-.48-1.2-1.16-1.56-2.03s-.54-1.89-.54-3.05v-.23c0-1.25.18-2.33.54-3.27s.88-1.66,1.56-2.18c.68-.52,1.49-.78,2.44-.78.69,0,1.29.14,1.79.43.5.28.93.69,1.28,1.21l.24-1.42h2.77v14.11l1.43.32v1.93h-6.49ZM95.91,27.01c.43,0,.81-.09,1.14-.26s.6-.42.81-.76v-5.25c-.21-.35-.48-.62-.8-.81-.32-.19-.7-.28-1.13-.28-.54,0-.98.16-1.32.48-.34.32-.59.76-.75,1.32s-.23,1.22-.23,1.97v.23c0,1.04.17,1.86.52,2.46s.94.9,1.76.9Z"/>
    </g>
  </g>
  <line class="cls-1" x1="94.3" y1="32.89" x2="31.3" y2="32.89"/>
</svg>